<?xml version="1.0" encoding="utf-8"?>
<!-- Generator: Adobe Illustrator 19.0.0, SVG Export Plug-In . SVG Version: 6.00 Build 0)  -->
<svg version="1.1" id="Layer_1" xmlns="http://www.w3.org/2000/svg" xmlns:xlink="http://www.w3.org/1999/xlink" x="0px" y="0px"
	 width="621.3px" height="829.5px" viewBox="0 0 621.3 829.5" style="enable-background:new 0 0 621.3 829.5;" xml:space="preserve"
	>
<style type="text/css">
	.st0{fill:#323B45;}
	.st1{fill:none;stroke:#000000;stroke-width:3;stroke-linecap:round;stroke-linejoin:round;stroke-miterlimit:10;}
	.st2{fill:#231F20;}
	.st3{fill:none;stroke:#FFFFFF;stroke-width:3;stroke-linecap:round;stroke-linejoin:round;stroke-miterlimit:10;}
	.st4{fill:#FFFFFF;}
	.st5{fill:none;stroke:#231F20;stroke-width:3;stroke-linecap:round;stroke-linejoin:round;stroke-miterlimit:10;}
	.st6{fill:none;stroke:#231F20;stroke-width:3;stroke-miterlimit:10;}
	.st7{fill:#FF6148;}
</style>
<path class="st0" d="M343.4,284.2L407,442.4l15.5,218.4l-149,16.4c0,0,4-128.2,0-154.5l-32.1,75L89.5,641.2l-30.6-156l61.9,0.7
	l99.9-195.5c0,0,32.9-14.5,67.5-14.5C318.5,275.9,343.4,284.2,343.4,284.2"/>
<path class="st1" d="M343.4,284.2L407,442.4l15.5,218.4l-149,16.4c0,0,4-128.2,0-154.5l-32.1,75L89.5,641.2l-30.6-156l61.9,0.7
	l99.9-195.5c0,0,32.9-14.5,67.5-14.5C318.5,275.9,343.4,284.2,343.4,284.2z"/>
<line class="st2" x1="272.2" y1="526.3" x2="309" y2="428.9"/>
<line class="st3" x1="272.2" y1="526.3" x2="309" y2="428.9"/>
<polygon class="st4" points="266.5,677.9 435,659.4 428.5,710.4 266.5,719.9 "/>
<polygon class="st5" points="266.5,677.9 435,659.4 428.5,710.4 266.5,719.9 "/>
<polygon class="st4" points="384.2,713 386,733.7 459.2,761.7 278,777.2 274.5,719.9 "/>
<polygon class="st6" points="384.2,713 386,733.7 459.2,761.7 278,777.2 274.5,719.9 "/>
<polygon class="st4" points="14.1,478.1 58,480.7 92.9,659.4 20.9,628.8 "/>
<polygon class="st5" points="14.1,478.1 58,480.7 92.9,659.4 20.9,628.8 "/>
<path class="st4" d="M14.3,483c0,0-60.8-11.5-76.3-1c2.5,42,9.5,201.5,9.5,201.5l27.3-59.5l44.9-21.5L14.3,483z"/>
<path class="st6" d="M14.3,483c0,0-60.8-11.5-76.3-1c2.5,42,9.5,201.5,9.5,201.5l27.3-59.5l44.9-21.5L14.3,483z"/>
<path class="st4" d="M482.4,159.8l-22.6-46.3c-11.6,8.4-67.5,47.8-98.3,48.9c-22.9,0.8-75.9-38.9-75.9-38.9s-3.1,4.7-8.5,4.6
	c-3.5,0-7.8-3.4-7.8-3.4s-111.2,47.1-148.6,101.8c11,40,81.7,120.3,87.7,126.5c6.2-3.4,30.8-41.7,30.8-41.7s-46.5-59.4-48.4-67.5
	c-1.9-8.1,28.3-33.6,28.3-33.6l3.3,79.3c0,0,30.6-13.1,60.8-13.7c30.4-0.6,60,8.3,60,8.3s-4.3-67.4,1.4-66.9
	C381.2,220.3,482.4,159.8,482.4,159.8"/>
<path class="st5" d="M482.4,159.8l-22.6-46.3c-11.6,8.4-67.5,47.8-98.3,48.9c-22.9,0.8-75.9-38.9-75.9-38.9s-3.1,4.7-8.5,4.6
	c-3.5,0-7.8-3.4-7.8-3.4s-111.2,47.1-148.6,101.8c11,40,81.7,120.3,87.7,126.5c6.2-3.4,30.8-41.7,30.8-41.7s-46.5-59.4-48.4-67.5
	c-1.9-8.1,28.3-33.6,28.3-33.6l3.3,79.3c0,0,30.6-13.1,60.8-13.7c30.4-0.6,60,8.3,60,8.3s-4.3-67.4,1.4-66.9
	C381.2,220.3,482.4,159.8,482.4,159.8"/>
<path class="st4" d="M486.4,108.8c0,0,28.3-32.8,35.4-26.1c8.5,7.9-15.3,29.5-15.3,29.5s26.5-16.1,29.8-11.3
	c6.4,9.1-23.8,26.3-23.8,26.3s26.9-8,30-1.5c3.6,7.5-32,19.8-32,19.8s11.9,0.9,12.5,3.9c1.6,8.5-40.6,10.5-40.6,10.5l-22.6-46.3
	c0,0,15.6-27.3,21.9-26.9s1.2,8.3,2.2,12.7c0.4,1.7,3.4,11.4,3,13.5c-0.6,3.3-3.7,9.9-3.7,9.9"/>
<path class="st5" d="M486.4,108.8c0,0,28.3-32.8,35.4-26.1c8.5,7.9-15.3,29.5-15.3,29.5s26.5-16.1,29.8-11.3
	c6.4,9.1-23.8,26.3-23.8,26.3s26.9-8,30-1.5c3.6,7.5-32,19.8-32,19.8s11.9,0.9,12.5,3.9c1.6,8.5-40.6,10.5-40.6,10.5l-22.6-46.3
	c0,0,15.6-27.3,21.9-26.9s1.2,8.3,2.2,12.7c0.4,1.7,3.4,11.4,3,13.5c-0.6,3.3-3.7,9.9-3.7,9.9"/>
<path class="st4" d="M232.1,324c0,0,4.2,7.4,4.7,11.7s-22,47.3-22,47.3l-6.3-29.8L232.1,324z"/>
<path class="st6" d="M232.1,324c0,0,4.2,7.4,4.7,11.7s-22,47.3-22,47.3l-6.3-29.8L232.1,324z"/>
<path class="st7" d="M252.3,81.7c0,0-0.7-17.3,3.7-23c5.4-7.2,11.9-8.5,14.9-12.8c3-4.3,6.4-9.7,13.6-8.1
	c13.9,3.1,16.8,42.2,16.8,42.2s-1.8,1.9-22.6,3C257.2,84.1,252.3,81.7,252.3,81.7"/>
<path class="st5" d="M252.3,81.7c0,0-0.7-17.3,3.7-23c5.4-7.2,11.9-8.5,14.9-12.8c3-4.3,6.4-9.7,13.6-8.1
	c13.9,3.1,16.8,42.2,16.8,42.2s-1.8,1.9-22.6,3C257.2,84.1,252.3,81.7,252.3,81.7z"/>
<path class="st4" d="M288.2,33.3c0,2.3-3.3,4.2-7.3,4.2c-4,0-7.3-1.9-7.3-4.2c0-2.3,3.3-4.2,7.3-4.2C285,29.1,288.2,31,288.2,33.3"
	/>
<ellipse class="st5" cx="281" cy="33.3" rx="7.3" ry="4.2"/>
<path class="st0" d="M279.8,111.7c8.4,0.3,28.1,6.4,34.8-2S310,90.8,306,84.9s0.1-24.9-31.1-20.5S245,95,244.9,98.5
	c-0.1,3.5-6.7,7.8-3.8,12.8C244.7,118.1,269.8,111.4,279.8,111.7"/>
<path class="st4" d="M270.4,125.6c0,0,0.7,2,6.2,2.6c2.4,0.3,6.9-3,6.9-3l-0.5-13.6c0,0,13.3-7.7,10.9-20.2c0,0-11.5-1.4-14.6-2.3
	c-3-0.9-7.5,8.2-11.1,7.5c-3.6-0.8-8.1-4.3-9.4-2.7s3.6,6.6,3.6,6.6s0.3,7.8,8.6,10.7C271.2,115,270.4,125.6,270.4,125.6"/>
<path class="st6" d="M270.4,125.6c0,0,0.7,2,6.2,2.6c2.4,0.3,6.9-3,6.9-3l-0.5-13.6c0,0,13.3-7.7,10.9-20.2c0,0-11.5-1.4-14.6-2.3
	c-3-0.9-7.5,8.2-11.1,7.5c-3.6-0.8-8.1-4.3-9.4-2.7s3.6,6.6,3.6,6.6s0.3,7.8,8.6,10.7C271.2,115,270.4,125.6,270.4,125.6z"/>
<polygon class="st0" points="384.2,275.9 366.9,377.1 482.1,356.8 460.5,266.4 "/>
<polygon class="st5" points="384.2,275.9 366.9,377.1 482.1,356.8 460.5,266.4 "/>
<path class="st5" d="M384.2,275.9c0,0-36.4-80.8,3.7-120.2"/>
<path class="st5" d="M427.2,190.1c0,0,8.5,5.7,11.5,11.7"/>
<polygon class="st0" points="492.5,173.8 442.5,233.3 503.5,280.8 559.5,224.4 "/>
<polygon class="st6" points="492.5,173.8 442.5,233.3 503.5,280.8 559.5,224.4 "/>
<path class="st5" d="M427.2,209.3c0,0-4.9-13.2-4.9-17.1"/>
<path class="st5" d="M412.7,141.7c13.3-29.2,38.3-1.7,79.8,32.1"/>
<polygon class="st7" points="394.4,230.6 424.7,326.9 533.5,263.2 460.2,187.8 "/>
<polygon class="st5" points="394.4,230.6 424.7,326.9 533.5,263.2 460.2,187.8 "/>
<path class="st5" d="M411.6,141.7c-36.4-1.7-17.3,88.9-17.3,88.9"/>
<path class="st5" d="M449.5,178.7c0,0,7.5,5.6,10.8,9.1"/>
<polygon class="st0" points="27.8,314.3 125.5,272.3 167.9,333.3 83.1,408.7 "/>
<line class="st5" x1="125.5" y1="272.3" x2="137.2" y2="260.6"/>
<path class="st5" d="M193.3,248.7c29.3,12.6-25.4,84.6-25.4,84.6"/>
<line class="st5" x1="113.2" y1="240.4" x2="123.7" y2="235"/>
<path class="st5" d="M193.5,240.4c0,0,4.8,22.3-18.5,39.8c-28.5,21.3-61.8,24-61.8,24"/>
<polygon class="st7" points="113.2,240.4 28.5,224.2 24.1,314.9 113.2,304.2 "/>
<polygon class="st5" points="113.2,240.4 28.5,224.2 24.1,314.9 113.2,304.2 "/>
<line class="st4" x1="53.5" y1="777.2" x2="206" y2="777.2"/>
<line class="st5" x1="53.5" y1="777.2" x2="206" y2="777.2"/>
<line class="st4" x1="0" y1="800.4" x2="92.9" y2="794.4"/>
<line class="st5" x1="0" y1="800.4" x2="92.9" y2="794.4"/>
<path class="st0" d="M91.7,46.6c0,17.1-13.9,30.9-30.9,30.9S29.9,63.7,29.9,46.6c0-17.1,13.9-30.9,30.9-30.9S91.7,29.5,91.7,46.6"/>
<circle class="st5" cx="60.8" cy="46.6" r="30.9"/>
<polygon class="st4" points="110.7,86.8 86.4,99.8 62.2,112.8 63,85.3 63.9,57.8 87.3,72.3 "/>
<polygon class="st6" points="110.7,86.8 86.4,99.8 62.2,112.8 63,85.3 63.9,57.8 87.3,72.3 "/>
<path class="st5" d="M533.4,517.9l22.6-10c0,0-6.5,26.6,3.5,34.1c9.4,7,36.9-2.8,45.6,8c7.5,9.2,2.5,52.2,2.5,52.2l-16,8.5
	c0,0,5.3-35.3-4-43.1c-12.5-10.5-33.1,2.2-41.6-3.5C533.4,555.7,533.4,517.9,533.4,517.9z"/>
<rect x="1165.8" y="46.6" class="st0" width="108" height="202.1"/>
<rect x="1366.8" y="54.7" class="st7" width="108" height="202.1"/>
</svg>
