<?xml version="1.0" encoding="utf-8"?>
<!-- Generator: Adobe Illustrator 19.0.0, SVG Export Plug-In . SVG Version: 6.00 Build 0)  -->
<svg version="1.1" id="Layer_1" xmlns="http://www.w3.org/2000/svg" xmlns:xlink="http://www.w3.org/1999/xlink" x="0px" y="0px"
	 width="582px" height="777px" viewBox="0 0 582 777" style="enable-background:new 0 0 582 777;" xml:space="preserve">
<style type="text/css">
	.st0{fill:#FF6148;stroke:#231F20;stroke-width:3;stroke-linecap:round;stroke-linejoin:round;stroke-miterlimit:10;}
	.st1{fill:#323B45;}
	.st2{fill:none;stroke:#000000;stroke-width:3;stroke-linecap:round;stroke-linejoin:round;stroke-miterlimit:10;}
	.st3{fill:none;stroke:#231F20;stroke-width:3;stroke-linecap:round;stroke-linejoin:round;stroke-miterlimit:10;}
	.st4{fill:#FFFFFF;}
	.st5{fill:#FF6148;}
	.st6{fill:none;stroke:#FFFFFF;stroke-miterlimit:10;}
	.st7{fill:none;}
</style>
<path class="st0" d="M396.9,384c0,0-65.6-7.2-114.9-5.7l12.7-134.9l-23.1,3.7l-10-60.9l92.8-4.1c0,0,5.9,5,23.9,3.4
	c33.2,9.7,73.6,68.2,73.6,68.2L397,275.2l-6.5-13.2L396.9,384z"/>
<path class="st1" d="M417.8,441.7l-186.3,112l65.3,98.6c0,0,299.6-131.1,268.8-210.6c-30.8-79.6-522.8-91.9-549,7.4
	c-12.7,48.1,200,113.5,200,113.5L417.8,441.7z"/>
<path class="st2" d="M417.8,441.7l-186.3,112l65.3,98.6c0,0,299.6-131.1,268.8-210.6c-30.8-79.6-522.8-91.9-549,7.4
	c-12.7,48.1,200,113.5,200,113.5L417.8,441.7z"/>
<path class="st1" d="M322.8,157.4c-5.8-18.3,29.2-64.2,57.7-60.2c26.7,3.8,26.1,18.1,31.3,27.1c2.9,5,11.3,9.8,12.5,19.3
	c1.1,8.7-5.1,13.4-4.3,20.6c0.8,7.1,7.7,19-1.8,24.3c-6.9,3.9-7.1-10-21.7-12.1c-10.6-1.5-25-2.4-41-7.2
	C340.1,164.5,327.4,171.9,322.8,157.4"/>
<path class="st3" d="M322.8,157.4c-5.8-18.3,29.2-64.2,57.7-60.2c26.7,3.8,26.1,18.1,31.3,27.1c2.9,5,11.3,9.8,12.5,19.3
	c1.1,8.7-5.1,13.4-4.3,20.6c0.8,7.1,7.7,19-1.8,24.3c-6.9,3.9-7.1-10-21.7-12.1c-10.6-1.5-25-2.4-41-7.2
	C340.1,164.5,327.4,171.9,322.8,157.4z"/>
<path class="st4" d="M139.1,81.1c0,0-9.8-55.1-23.2-51c-13.4,4,4.7,52.8,4.7,52.8s-37.8,21-35.7,30.5c2.1,9.4,79.5,133,101.1,137.5
	c21.6,4.5,85.8-3.8,85.8-3.8l-10-60.9c0,0-47.4,2.4-61.3-4.1c-49.7-23.4-35.3-129-46.7-130.6C140.9,49.6,139.1,81.1,139.1,81.1"/>
<path class="st3" d="M139.1,81.1c0,0-9.8-55.1-23.2-51c-13.4,4,4.7,52.8,4.7,52.8s-37.8,21-35.7,30.5c2.1,9.4,79.5,133,101.1,137.5
	c21.6,4.5,85.8-3.8,85.8-3.8l-10-60.9c0,0-47.4,2.4-61.3-4.1c-49.7-23.4-35.3-129-46.7-130.6C140.9,49.6,139.1,81.1,139.1,81.1z"/>
<path class="st4" d="M125.1,120.1l11.6-6c0,0-12-37.6-24.2-31.9C103.2,86.4,125.1,120.1,125.1,120.1"/>
<path class="st3" d="M125.1,120.1l11.6-6c0,0-12-37.6-24.2-31.9C103.2,86.4,125.1,120.1,125.1,120.1z"/>
<path class="st4" d="M110.6,127.9l12-6.4c0,0-13.1-38.4-23.2-33.1C88.3,94.2,110.6,127.9,110.6,127.9"/>
<path class="st3" d="M110.6,127.9l12-6.4c0,0-13.1-38.4-23.2-33.1C88.3,94.2,110.6,127.9,110.6,127.9z"/>
<path class="st4" d="M96.8,136.4l11-7.4c0,0-13.1-38.4-23.2-33.1C73.5,101.7,96.8,136.4,96.8,136.4"/>
<path class="st3" d="M96.8,136.4l11-7.4c0,0-13.1-38.4-23.2-33.1C73.5,101.7,96.8,136.4,96.8,136.4z"/>
<path class="st3" d="M130.8,117.4c0,0,7.4,12.3,16.5,14"/>
<path class="st4" d="M451.9,253.8c0,0,44.4,63.1,41.4,80.6c-2.9,16.6-116.6,74.8-116.6,74.8l-3.2-58l46.6-25.6L397,275.2
	L451.9,253.8z"/>
<path class="st3" d="M451.9,253.8c0,0,44.4,63.1,41.4,80.6c-2.9,16.6-116.6,74.8-116.6,74.8l-3.2-58l46.6-25.6L397,275.2
	L451.9,253.8z"/>
<path class="st4" d="M354.4,182.1l7.9-19.7c0,0-16.2-11.8-7.9-28.8c7.8-5,14.1,0.3,15.8,2.3c1.8,2,7.3,11.3,12,11.3
	c4.8,0,19.3-0.8,19.1,5.5c-0.3,6.3-4.5,8-9,5.5c-4.8,4.3-10.5,7.3-14,5.3c-0.8,6.8,0.1,22.1,0.1,22.1S360.7,187.4,354.4,182.1"/>
<path class="st3" d="M354.4,182.1l7.9-19.7c0,0-16.2-11.8-7.9-28.8c7.8-5,14.1,0.3,15.8,2.3c1.8,2,7.3,11.3,12,11.3
	c4.8,0,19.3-0.8,19.1,5.5c-0.3,6.3-4.5,8-9,5.5c-4.8,4.3-10.5,7.3-14,5.3c-0.8,6.8,0.1,22.1,0.1,22.1S360.7,187.4,354.4,182.1z"/>
<path class="st5" d="M366.8,429.3l-226.2,16.2c-6.6,0.5-12.4-4.5-12.8-11.1l-9.6-134.1c-0.5-6.6,4.5-12.4,11.1-12.8l226.1-16.2
	c6.6-0.5,12.4,4.5,12.8,11.1l9.6,134.1C378.4,423.1,373.4,428.9,366.8,429.3"/>
<path class="st3" d="M366.8,429.3l-226.2,16.2c-6.6,0.5-12.4-4.5-12.8-11.1l-9.6-134.1c-0.5-6.6,4.5-12.4,11.1-12.8l226.1-16.2
	c6.6-0.5,12.4,4.5,12.8,11.1l9.6,134.1C378.4,423.1,373.4,428.9,366.8,429.3z"/>
<path class="st4" d="M269.7,370.3c0,12.6-10.3,22.9-22.9,22.9c-12.6,0-22.9-10.3-22.9-22.9c0-12.6,10.3-22.9,22.9-22.9
	C259.4,347.4,269.7,357.6,269.7,370.3"/>
<circle class="st3" cx="246.8" cy="370.3" r="22.9"/>
<line class="st6" x1="217" y1="440.1" x2="285.4" y2="475.8"/>
<path class="st1" d="M437.2,580.1l30.7,23.4l-87.4,59.4l-46.1-28.1C334.5,634.7,418.6,592.6,437.2,580.1"/>
<path class="st2" d="M437.2,580.1l30.7,23.4l-87.4,59.4l-46.1-28.1C334.5,634.7,418.6,592.6,437.2,580.1z"/>
<polygon class="st3" points="467.9,603.5 496.3,624.2 401.2,690.4 364.4,673.9 "/>
<polygon class="st4" points="487.9,630.1 514.1,652.3 414.4,757.3 432.5,697.1 418.8,678.2 "/>
<polygon class="st3" points="487.9,630.1 514.1,652.3 414.4,757.3 432.5,697.1 418.8,678.2 "/>
<polygon class="st3" points="231.4,553.6 180.7,583.8 248,674.7 303.9,662.9 "/>
<polygon class="st4" points="188.4,594.2 147.3,621.2 209.5,743.9 216.5,669 233.7,655.3 "/>
<polygon class="st3" points="188.4,594.2 147.3,621.2 209.5,743.9 216.5,669 233.7,655.3 "/>
<path class="st6" d="M301.8,619c0,0,203.9-103.6,203.9-128.1"/>
<rect x="-493.1" y="-362.1" class="st7" width="1600" height="1200"/>
</svg>
