<?xml version="1.0" encoding="utf-8"?>
<!-- Generator: Adobe Illustrator 19.0.0, SVG Export Plug-In . SVG Version: 6.00 Build 0)  -->
<svg version="1.1" id="Layer_1" xmlns="http://www.w3.org/2000/svg" xmlns:xlink="http://www.w3.org/1999/xlink" x="0px" y="0px"
	 width="1015.4px" height="985.5px" viewBox="-31 48.5 1015.4 985.5" style="enable-background:new -31 48.5 1015.4 985.5;"
	 xml:space="preserve">
<style type="text/css">
	.st0{fill:#323B45;}
	.st1{fill:none;stroke:#231F20;stroke-width:3;stroke-miterlimit:10;}
	.st2{fill:#FF6148;}
	.st3{fill:none;stroke:#231F20;stroke-width:3;stroke-linecap:round;stroke-linejoin:round;stroke-miterlimit:10;}
	.st4{fill:#FFFFFF;}
	.st5{fill:none;stroke:#000000;stroke-width:3;stroke-linecap:round;stroke-linejoin:round;stroke-miterlimit:10;}
	.st6{fill:#231F20;}
	.st7{fill:none;}
</style>
<rect x="621" y="178.6" transform="matrix(-1 1.422947e-003 -1.422947e-003 -1 1583.332 604.7741)" class="st0" width="340.9" height="248.7"/>
<rect x="621" y="178.6" transform="matrix(-1 1.422947e-003 -1.422947e-003 -1 1583.332 604.7741)" class="st1" width="340.9" height="248.7"/>
<path class="st2" d="M52.4,385c2.1-43.8,52.4-155.2,169.6-115.2c163,55.6-19.5,495,178,518.7C593.5,811.8,618.2,640,635.1,563.9h41
	c1,76.9-32.4,297.4-274.7,277.1c-260.2-21.7-70.5-471.6-196-523.5c-50.4-20.8-100.6,14.3-106,69.2"/>
<path class="st3" d="M52.4,385c2.1-43.8,52.4-155.2,169.6-115.2c163,55.6-19.5,495,178,518.7C593.5,811.8,618.2,640,635.1,563.9h41
	c1,76.9-32.4,297.4-274.7,277.1c-260.2-21.7-70.5-471.6-196-523.5c-50.4-20.8-100.6,14.3-106,69.2"/>
<path class="st0" d="M393.1,323.6c6.4-0.1,22.7,6.9,30.7,0.6c8-6.4,2.6-15.4,3.3-23.7c1.2-15.2-10.9-41.1-31.9-41.1
	c-24.8,0-27,19.1-34.6,19.1c-9.8,0-32.9,33.6-16.1,46.1c10.5,7.9,14.2-8.7,21.9-1.9C374.6,330.1,386.4,323.7,393.1,323.6"/>
<path class="st3" d="M393.1,323.6c6.4-0.1,22.7,6.9,30.7,0.6c8-6.4,2.6-15.4,3.3-23.7c1.2-15.2-10.9-41.1-31.9-41.1
	c-24.8,0-27,19.1-34.6,19.1c-9.8,0-32.9,33.6-16.1,46.1c10.5,7.9,14.2-8.7,21.9-1.9C374.6,330.1,386.4,323.7,393.1,323.6z"/>
<path class="st4" d="M855.6,317.8c-0.7,23.7-20.4,42.4-44.1,41.7c-23.7-0.7-42.4-20.4-41.7-44.1c0.7-23.7,20.4-42.4,44.1-41.7
	C837.6,274.4,856.3,294.1,855.6,317.8"/>
<circle class="st3" cx="812.7" cy="316.6" r="42.9"/>
<path class="st2" d="M337.8,498.3l111.8,4.5l-6.4-109.1l22.1,12.9l26-42.8c0,0-53.8-33.7-96.7-33.7c0,0-7.7,3.9-13.7,0
	c-27.6,4.9-46.1,17.6-88.9,60.8c26.6,28.7,38.8,41.2,38.8,41.2l11.8-11.4L337.8,498.3z"/>
<path class="st3" d="M337.8,498.3l111.8,4.5l-6.4-109.1l22.1,12.9l26-42.8c0,0-53.8-33.7-96.7-33.7c0,0-7.7,3.9-13.7,0
	c-27.6,4.9-46.1,17.6-88.9,60.8c26.6,28.7,38.8,41.2,38.8,41.2l11.8-11.4L337.8,498.3z"/>
<path class="st4" d="M292.1,390.9l-21.8,23.8l-106.9-69.4c0,0-9.8-18.8-15-17.8c-5.3,0.9,0,17.4,0,17.4s-38.6-16.7-41.6-9.4
	c-2.6,6.3,26.6,13.5,26.6,13.5s-36.2-11.7-38-3.1c-1.7,8,36.9,14.4,36.9,14.4s-41.9-7.7-43,0.7c-1.2,9.2,36.3,6.1,36.3,6.1
	s-28.6,6.7-27.7,14.3c0.7,6.1,28-2.7,41.2,4.8c13.1,7.5,134.6,99.7,134.6,99.7l57.2-53.8L292.1,390.9z"/>
<path class="st3" d="M292.1,390.9l-21.8,23.8l-106.9-69.4c0,0-9.8-18.8-15-17.8c-5.3,0.9,0,17.4,0,17.4s-38.6-16.7-41.6-9.4
	c-2.6,6.3,26.6,13.5,26.6,13.5s-36.2-11.7-38-3.1c-1.7,8,36.9,14.4,36.9,14.4s-41.9-7.7-43,0.7c-1.2,9.2,36.3,6.1,36.3,6.1
	s-28.6,6.7-27.7,14.3c0.7,6.1,28-2.7,41.2,4.8c13.1,7.5,134.6,99.7,134.6,99.7l57.2-53.8L292.1,390.9z"/>
<polygon class="st0" points="337.8,498.3 216.7,657.3 104.8,741.8 175.9,824.8 295.1,739.8 351.1,661.3 353.6,706.8 295.4,876.1 
	406.5,889.4 475.1,718.8 449.6,502.8 "/>
<polygon class="st5" points="337.8,498.3 216.7,657.3 104.8,741.8 175.9,824.8 295.1,739.8 351.1,661.3 353.6,706.8 295.4,876.1 
	406.5,889.4 475.1,718.8 449.6,502.8 "/>
<line class="st3" x1="395.6" y1="604.3" x2="351.1" y2="661.3"/>
<polygon class="st3" points="101.4,737.7 67.2,761.4 134.2,858.3 188.6,839.5 "/>
<polygon class="st4" points="71.6,767.6 23.1,804.8 99.6,925.8 119.6,862.8 132,855.1 "/>
<polygon class="st3" points="71.6,767.6 23.1,804.8 99.6,925.8 119.6,862.8 132,855.1 "/>
<polygon class="st3" points="288.6,875.3 415.8,890.5 395.6,943 280.8,902.5 "/>
<polygon class="st4" points="285.8,904.3 386.2,939.8 376.1,968.3 424.6,1020.8 262.1,967.8 "/>
<polygon class="st3" points="285.8,904.3 386.2,939.8 376.1,968.3 424.6,1020.8 262.1,967.8 "/>
<path class="st2" d="M99.4,386.8c-8.5,70.2,65.1,148.4,231.5,205.3c219.2,75,243.9,243,294.2,375.7c2.6,6.9-44.9,17.8-46.5,13.5
	c-74.3-198-122.2-287.4-258.6-337.9C65.6,549.4,45.8,427.5,52.4,385"/>
<path class="st3" d="M99.4,386.8c-8.5,70.2,65.1,148.4,231.5,205.3c219.2,75,243.9,243,294.2,375.7c2.6,6.9-44.9,17.8-46.5,13.5
	c-74.3-198-122.2-287.4-258.6-337.9C65.6,549.4,45.8,427.5,52.4,385"/>
<polygon class="st4" points="635.2,563.9 656.8,499.2 676.2,563.9 "/>
<polygon class="st3" points="635.2,563.9 656.8,499.2 676.2,563.9 "/>
<polygon class="st6" points="649.2,521.7 653,523.5 656.8,520 659.3,523.5 663.5,521.5 656.8,499.2 "/>
<polygon class="st0" points="649.2,521.7 653,523.5 656.8,520 659.3,523.5 663.5,521.5 656.8,499.2 "/>
<path class="st3" d="M723,678.8c0,0,16.5,84.5,91,38.8c74.5-45.8,103,13.6,103,13.6"/>
<line class="st3" x1="706.6" y1="632.8" x2="751" y2="431.3"/>
<line class="st3" x1="826" y1="424" x2="877" y2="632.8"/>
<polyline class="st2" points="808.9,332.4 910.1,258.6 961.9,298.7 962.1,427.1 621.2,427.5 621.1,308.1 707.2,241.7 856.5,374.9 
	"/>
<polyline class="st3" points="808.9,332.4 910.1,258.6 961.9,298.7 962.1,427.1 621.2,427.5 621.1,308.1 707.2,241.7 856.5,374.9 
	"/>
<line class="st7" x1="765.8" y1="266.9" x2="754.6" y2="252.4"/>
<line class="st3" x1="765.8" y1="266.9" x2="754.6" y2="252.4"/>
<line class="st7" x1="794.8" y1="255.3" x2="790.1" y2="237.5"/>
<line class="st3" x1="794.8" y1="255.3" x2="790.1" y2="237.5"/>
<line class="st7" x1="824.7" y1="255.6" x2="830" y2="238"/>
<line class="st3" x1="824.7" y1="255.6" x2="830" y2="238"/>
<line class="st7" x1="853" y1="267.6" x2="865.6" y2="254.1"/>
<line class="st3" x1="853" y1="267.6" x2="865.6" y2="254.1"/>
<path class="st2" d="M22.1,138.5c0,11.2-9.1,20.3-20.2,20.3c-11.2,0-20.3-9.1-20.3-20.3c0-11.2,9.1-20.3,20.3-20.3
	C13,118.3,22.1,127.4,22.1,138.5"/>
<circle class="st3" cx="1.8" cy="138.5" r="20.2"/>
<path class="st4" d="M83,73c0,4.8-3.9,8.7-8.7,8.7s-8.7-3.9-8.7-8.7s3.9-8.7,8.7-8.7S83,68.2,83,73"/>
<circle class="st3" cx="74.3" cy="73" r="8.7"/>
<path class="st2" d="M216.1,153.3c0,31.5-25.5,57-57,57s-57-25.5-57-57s25.5-57,57-57C190.5,96.3,216.1,121.8,216.1,153.3"/>
<circle class="st3" cx="159.1" cy="153.3" r="57"/>
<path class="st3" d="M203.9,117.3c16.6-1.8,28.6,0.8,31.8,8c6.1,14-23.2,40.4-65.6,58.9c-42.3,18.5-81.6,22.1-87.8,8
	c-3.5-8,4.4-19.9,19.7-32.1"/>
<path class="st3" d="M8.1,314.3c0,0,9.8,14,21.5,19c-3,8.5-20.7,59.3-14.2,91.3"/>
<path class="st3" d="M49.8,554.5c0,0,25.1,52.1,117.8,84.1c-22,15.5-31.8,22.4-31.8,22.4l-26-3l-6,22.1l-101.6,72"/>
<path class="st3" d="M272.6,91.8c0,0,27,76.5-33.6,156.8c26.1,8.6,42.6,24.8,42.6,24.8"/>
<path class="st3" d="M634,872.3c0,0,1.4,39.9,12,44.5c12,5.2,50.5-27.2,16.1,49.6c-5.5,12.2,79.6-27.4,79.6-27.4"/>
<path class="st4" d="M380.9,314.9c2,3.2,0,15.2,0,15.2s3.6,2,6.3,1.7c2.7-0.2,5.3-1.7,5.3-1.7v-15.6c0,0,19.4-9.3,12.3-18.2
	c-5.6-7.1-20.2,4-23.6,5.1c-3.4,1.1-8.9-2.7-10.8,1.1C368.4,307,378.8,311.5,380.9,314.9"/>
<path class="st3" d="M380.9,314.9c2,3.2,0,15.2,0,15.2s3.6,2,6.3,1.7c2.7-0.2,5.3-1.7,5.3-1.7v-15.6c0,0,19.4-9.3,12.3-18.2
	c-5.6-7.1-20.2,4-23.6,5.1c-3.4,1.1-8.9-2.7-10.8,1.1C368.4,307,378.8,311.5,380.9,314.9z"/>
<path class="st4" d="M646,746.6c0,16-13,29-29,29s-29-13-29-29s13-29,29-29C633.1,717.6,646,730.5,646,746.6"/>
<circle class="st3" cx="617" cy="746.6" r="29"/>
<path class="st4" d="M491.3,363.8l54.8,36.6c0,0,82.1-48.2,86.3-53.4c4.1-5.3,9.8-19.7,14.4-19.5c4.7,0.2,0,19.1,0,19.1
	s38.6-12.8,43.1-4.5c-8.1,2.4-28.1,8.8-28.1,8.8s34.1-10.5,38.4-4.3c4.3,6.2-37.9,14.6-37.9,14.6s39.6-11.8,43.3-3.2
	s-36.4,10.7-36.4,10.7s33.8-1.7,33.2,3.2c-0.6,4.9-58.9,4.7-152.8,85.3c-17.3-10.3-84.4-50.7-84.4-50.7L491.3,363.8z"/>
<path class="st3" d="M491.3,363.8l54.8,36.6c0,0,82.1-48.2,86.3-53.4c4.1-5.3,9.8-19.7,14.4-19.5c4.7,0.2,0,19.1,0,19.1
	s38.6-12.8,43.1-4.5c-8.1,2.4-28.1,8.8-28.1,8.8s34.1-10.5,38.4-4.3c4.3,6.2-37.9,14.6-37.9,14.6s39.6-11.8,43.3-3.2
	s-36.4,10.7-36.4,10.7s33.8-1.7,33.2,3.2c-0.6,4.9-58.9,4.7-152.8,85.3c-17.3-10.3-84.4-50.7-84.4-50.7L491.3,363.8z"/>
<rect x="-288.6" y="-69.1" class="st7" width="1600" height="1200"/>
<rect x="1564.5" y="389.8" class="st2" width="123" height="123"/>
<rect x="1711.4" y="389.8" class="st0" width="123" height="123"/>
</svg>
