<?xml version="1.0" encoding="utf-8"?>
<!-- Generator: Adobe Illustrator 19.0.0, SVG Export Plug-In . SVG Version: 6.00 Build 0)  -->
<svg version="1.1" id="Layer_1" xmlns="http://www.w3.org/2000/svg" xmlns:xlink="http://www.w3.org/1999/xlink" x="0px" y="0px"
	 width="745.5px" height="819px" viewBox="0 0 745.5 819" style="enable-background:new 0 0 745.5 819;" xml:space="preserve">
<style type="text/css">
	.st0{fill:none;stroke:#231F20;stroke-width:3;stroke-linecap:round;stroke-linejoin:round;stroke-miterlimit:10;}
	.st1{fill:#FFFFFF;}
	.st2{fill:#323B45;}
	.st3{fill:none;stroke:#000000;stroke-width:3;stroke-linecap:round;stroke-linejoin:round;stroke-miterlimit:10;}
	.st4{fill:none;stroke:#FFFFFF;stroke-miterlimit:10;}
	.st5{fill:#FF6148;}
	.st6{fill:#231F20;}
	.st7{fill:#DADADA;}
	.st8{fill:none;}
</style>
<path class="st0" d="M430.7,327.1c0,0-47.2-49.2-48-45.8c-1.6,6.5-4.9,17.7-4.9,17.7l-52.1-19.3c0,0,18.1-88,27.5-98.3"/>
<path class="st1" d="M179.3,362.8c-0.9-10.2,32.8-4.4,32.8-4.4S180.7,377.9,179.3,362.8"/>
<path class="st0" d="M179.3,362.8c-0.9-10.2,32.8-4.4,32.8-4.4S180.7,377.9,179.3,362.8z"/>
<path class="st1" d="M325.7,279.7l-9.1,42.2c0,0-112,34.9-122.5,44.3s-29.8,22.2-24.6,29c3.4,4.4,39.9-23,39.9-23
	s-38,25.9-32.6,33.4c5,7.1,36-22.1,36-22.1s-30.5,26.3-25.5,32.4c4.7,5.9,30-22.3,30-22.3s-11.6,14.3-9.4,18s28.5-22.9,35.3-26.3
	S364,350.4,364,350.4l13.8-51.4L325.7,279.7z"/>
<path class="st0" d="M325.7,279.7l-9.1,42.2c0,0-112,34.9-122.5,44.3s-29.8,22.2-24.6,29c3.4,4.4,39.9-23,39.9-23
	s-38,25.9-32.6,33.4c5,7.1,36-22.1,36-22.1s-30.5,26.3-25.5,32.4c4.7,5.9,30-22.3,30-22.3s-11.6,14.3-9.4,18s28.5-22.9,35.3-26.3
	S364,350.4,364,350.4l13.8-51.4L325.7,279.7z"/>
<line class="st0" x1="389.4" y1="252.9" x2="382.7" y2="281.3"/>
<path class="st2" d="M400.7,467.8l-19.5,131.1l99.6,70.2l71-55l-55.5-46.2c0,0,60.6-112.5,57.6-173.5
	C499,435.2,400.7,467.8,400.7,467.8"/>
<path class="st3" d="M400.7,467.8l-19.5,131.1l99.6,70.2l71-55l-55.5-46.2c0,0,60.6-112.5,57.6-173.5
	C499,435.2,400.7,467.8,400.7,467.8z"/>
<polyline class="st4" points="460.2,455.9 435,583.7 516.4,640.5 "/>
<polygon class="st0" points="557.4,609.9 464.4,681.9 510.9,703.4 598.9,648.9 "/>
<polygon class="st1" points="591.7,653.3 627,683 531.7,756.9 533.2,711.1 517.7,699.1 "/>
<polygon class="st0" points="591.7,653.3 627,683 531.7,756.9 533.2,711.1 517.7,699.1 "/>
<path class="st5" d="M554,394.4c-69.5,54-238.8,100.7-238.8,100.7l-35.4,184.7l-91.3-22.8l10.5-192.7
	c21.8-27.8,205.7-138.8,274.2-150.8L554,394.4z"/>
<path class="st3" d="M554,394.4c-69.5,54-238.8,100.7-238.8,100.7l-35.4,184.7l-91.3-22.8l10.5-192.7
	c21.8-27.8,205.7-138.8,274.2-150.8L554,394.4z"/>
<path class="st0" d="M719.4,742.6c0,0-13.1,15.8-19.3,15.8c-155.4-1.4-496-3.4-651.6-5.8c-5.1-0.1-14.6-14.5-14.6-14.5"/>
<circle class="st0" cx="514.2" cy="779.7" r="22.7"/>
<circle class="st0" cx="158.8" cy="777.7" r="22.7"/>
<polygon class="st0" points="289.9,682.4 173.4,653.3 175.9,695.9 280.9,712.9 "/>
<polygon class="st1" points="187.3,697.7 187.3,714.6 133.7,753.7 266.9,754.5 274.6,711.8 "/>
<polygon class="st0" points="187.3,697.7 187.3,714.6 133.7,753.7 266.9,754.5 274.6,711.8 "/>
<path class="st1" d="M318.4,150.7c0,10.5,7.3,18.9,16.4,18.9c9.1,0,16.4-8.5,16.4-18.9c0-10.5-7.3-18.9-16.4-18.9
	C325.7,131.7,318.4,140.2,318.4,150.7"/>
<ellipse class="st0" cx="334.8" cy="150.7" rx="16.4" ry="18.9"/>
<path class="st0" d="M487.8,245.6c0,0-75-46-150.1-38.1"/>
<path class="st0" d="M479.9,253.5c0,0-60.6-47.2-143.7-36.1"/>
<path class="st0" d="M451.2,291.6c0,0-38.5,3.7-63-2.5"/>
<path class="st0" d="M460.2,300.6c0,0-38.9,4.4-66.7-3.5"/>
<rect x="511.4" y="170.5" transform="matrix(-0.8261 0.5635 -0.5635 -0.8261 1093.9725 68.8853)" class="st5" width="50" height="65.5"/>
<rect x="511.4" y="170.5" transform="matrix(-0.8261 0.5635 -0.5635 -0.8261 1093.9725 68.8853)" class="st0" width="50" height="65.5"/>
<rect x="498.2" y="190" transform="matrix(-0.8261 0.5635 -0.5635 -0.8261 1052.8091 120.5342)" class="st2" width="19.1" height="65.5"/>
<rect x="498.2" y="190" transform="matrix(-0.8261 0.5635 -0.5635 -0.8261 1052.8091 120.5342)" class="st0" width="19.1" height="65.5"/>
<rect x="532.3" y="175.3" transform="matrix(-0.8261 0.5635 -0.5635 -0.8261 1113.9303 61.0385)" class="st1" width="30.6" height="54.3"/>
<rect x="532.3" y="175.3" transform="matrix(-0.8261 0.5635 -0.5635 -0.8261 1113.9303 61.0385)" class="st0" width="30.6" height="54.3"/>
<path class="st2" d="M353.2,181.4c-4.8-1.3-2-5.1-8.6-16.1c-6.8-11.2-33.9-20.2-33.9-28.4c0-17.9,40.9-46,81.3-21
	c5.7,3.6,23.3,2.7,25,10.3c2.7,12.3-7.3,7.9-10.5,16.6c-4.8,13.1-18.8,19.3-26.5,22.8C371.1,169.6,368.6,185.7,353.2,181.4"/>
<path class="st0" d="M353.2,181.4c-4.8-1.3-2-5.1-8.6-16.1c-6.8-11.2-33.9-20.2-33.9-28.4c0-17.9,40.9-46,81.3-21
	c5.7,3.6,23.3,2.7,25,10.3c2.7,12.3-7.3,7.9-10.5,16.6c-4.8,13.1-18.8,19.3-26.5,22.8C371.1,169.6,368.6,185.7,353.2,181.4z"/>
<rect x="526.3" y="74.4" class="st0" width="67.1" height="54.4"/>
<polygon class="st0" points="593.4,74.4 559.7,98.6 526.3,74.4 "/>
<rect x="642.2" y="42.1" class="st5" width="77.3" height="66.8"/>
<rect x="642.2" y="42.1" class="st0" width="77.3" height="66.8"/>
<rect x="680.8" y="54.5" class="st1" width="38.6" height="23.1"/>
<rect x="680.8" y="54.5" class="st0" width="38.6" height="23.1"/>
<line class="st0" x1="718.6" y1="89" x2="693.6" y2="89"/>
<line class="st0" x1="718.6" y1="96.9" x2="704.9" y2="96.9"/>
<rect x="642.2" y="42.1" class="st2" width="22.3" height="65.8"/>
<rect x="642.2" y="42.1" class="st0" width="22.3" height="65.8"/>
<rect x="117.7" y="221.1" transform="matrix(-0.8371 0.5471 -0.5471 -0.8371 447.2195 391.3089)" class="st5" width="95.3" height="82.3"/>
<rect x="117.7" y="221.1" transform="matrix(-0.8371 0.5471 -0.5471 -0.8371 447.2195 391.3089)" class="st0" width="95.3" height="82.3"/>
<rect x="155.1" y="225.2" transform="matrix(-0.8371 0.5471 -0.5471 -0.8371 459.635 342.0004)" class="st1" width="47.6" height="28.4"/>
<rect x="155.1" y="225.2" transform="matrix(-0.8371 0.5471 -0.5471 -0.8371 459.635 342.0004)" class="st0" width="47.6" height="28.4"/>
<line class="st0" x1="214.3" y1="250.1" x2="187.6" y2="267.6"/>
<line class="st0" x1="219.6" y1="258.3" x2="204.7" y2="268"/>
<rect x="123.2" y="239.6" transform="matrix(-0.8371 0.5471 -0.5471 -0.8371 405.2129 440.9271)" class="st6" width="27.4" height="82.3"/>
<rect x="123.2" y="239.6" transform="matrix(-0.8371 0.5471 -0.5471 -0.8371 405.2129 440.9271)" class="st2" width="27.4" height="82.3"/>
<rect x="479.9" y="199.2" transform="matrix(-0.7071 0.7071 -0.7071 -0.7071 1171.7732 81.5284)" class="st5" width="178.2" height="168.4"/>
<rect x="479.9" y="199.2" transform="matrix(-0.7071 0.7071 -0.7071 -0.7071 1171.7732 81.5284)" class="st0" width="178.2" height="168.4"/>
<rect x="498.1" y="243" transform="matrix(-0.7071 0.7071 -0.7071 -0.7071 1127.9789 187.2452)" class="st2" width="54.3" height="168.4"/>
<rect x="498.1" y="243" transform="matrix(-0.7071 0.7071 -0.7071 -0.7071 1127.9789 187.2452)" class="st0" width="54.3" height="168.4"/>
<polygon class="st5" points="542.5,257.2 629.9,170 572.5,160.9 484.9,248.5 "/>
<polygon class="st0" points="542.5,257.2 629.9,170 572.5,160.9 484.9,248.5 "/>
<path class="st0" d="M630.2,116.4c0,0-21,13.9-25.9,22.5"/>
<path class="st0" d="M550.7,143.7c0,0,3.4,12.4,4.1,17.2"/>
<path class="st0" d="M461.1,70.6c0,0,32.4,29.4,38.3,40.5"/>
<rect x="417" y="122.2" transform="matrix(-0.5399 0.8417 -0.8417 -0.5399 833.6912 -145.7392)" class="st5" width="79.3" height="65.6"/>
<rect x="417" y="122.2" transform="matrix(-0.5399 0.8417 -0.8417 -0.5399 833.6912 -145.7392)" class="st0" width="79.3" height="65.6"/>
<rect x="425.4" y="138.8" transform="matrix(-0.5399 0.8417 -0.8417 -0.5399 818.7723 -144.7393)" class="st1" width="47" height="25.3"/>
<rect x="425.4" y="138.8" transform="matrix(-0.5399 0.8417 -0.8417 -0.5399 818.7723 -144.7393)" class="st0" width="47" height="25.3"/>
<line class="st7" x1="481.4" y1="144.3" x2="470.5" y2="161.3"/>
<line class="st0" x1="481.4" y1="144.3" x2="470.5" y2="161.3"/>
<line class="st7" x1="487.8" y1="148.4" x2="479.1" y2="161.9"/>
<line class="st0" x1="487.8" y1="148.4" x2="479.1" y2="161.9"/>
<path class="st0" d="M396.4,30.9c0,0,26.4-15.2,36.4-5.3c9.9,9.9-31.6,30.8-23.3,39.2c8.3,8.3,43.4-17.1,47.2-27.2"/>
<line class="st0" x1="402.2" y1="14.7" x2="445.3" y2="57.9"/>
<line class="st0" x1="394.1" y1="18.7" x2="441.4" y2="65.9"/>
<polyline class="st4" points="378.2,405.2 252.4,481.6 231.7,631.8 "/>
<rect x="-413.6" y="-228.6" class="st8" width="1600" height="1200"/>
<rect x="1294.4" y="-13.7" class="st5" width="116" height="116"/>
<rect x="1268.9" y="243.8" class="st2" width="116" height="116"/>
</svg>
